<?xml version="1.0" standalone="no"?>
<!DOCTYPE svg PUBLIC "-//W3C//DTD SVG 20010904//EN"
 "http://www.w3.org/TR/2001/REC-SVG-20010904/DTD/svg10.dtd">
<svg version="1.0" xmlns="http://www.w3.org/2000/svg"
 width="500.000000pt" height="500.000000pt" viewBox="0 0 500.000000 500.000000"
 preserveAspectRatio="xMidYMid meet">
<metadata>
Created by potrace 1.11, written by Peter Selinger 2001-2013
</metadata>
<g transform="translate(0.000000,500.000000) scale(0.100000,-0.100000)"
fill="#000000" stroke="none">
<path d="M2303 4851 c-51 -17 -292 -169 -383 -241 -125 -98 -175 -206 -185
-395 -1 -27 -3 -58 -4 -69 -1 -13 -6 -16 -18 -11 -66 26 -357 108 -418 118
-16 3 -41 8 -55 11 -114 27 -280 37 -363 23 -166 -30 -241 -194 -169 -372 79
-196 83 -212 86 -339 4 -130 15 -185 52 -257 25 -51 130 -159 212 -220 48 -37
52 -43 53 -82 5 -276 103 -409 362 -493 42 -14 77 -26 78 -27 0 -1 3 -36 5
-77 10 -156 48 -249 141 -336 l54 -51 -68 -50 c-146 -108 -380 -250 -514 -311
-120 -56 -178 -76 -404 -141 -110 -32 -226 -71 -258 -86 -113 -56 -177 -147
-182 -259 -6 -122 62 -224 200 -301 58 -33 65 -40 66 -68 1 -18 1 -35 0 -39 0
-4 6 -39 14 -78 36 -172 115 -247 280 -265 136 -14 133 -12 199 -113 99 -148
196 -221 303 -227 112 -7 199 48 305 193 231 313 258 350 463 632 282 387 243
345 328 354 106 12 247 59 381 127 326 167 602 465 823 889 130 251 278 470
335 497 13 6 73 21 133 33 250 49 340 113 339 239 0 66 -17 101 -74 157 -37
37 -168 111 -257 146 -20 8 -37 24 -44 41 -20 47 -139 161 -211 201 -36 20
-104 51 -150 68 -147 54 -337 46 -546 -22 -90 -30 -93 -31 -115 -13 -42 35
-122 108 -165 152 -110 113 -206 354 -247 621 -38 247 -62 323 -125 387 -64
66 -163 87 -257 54z"/>
</g>
</svg>
